Patient4_TMGait_0pt4_02_right_34_EMG.mot
version=1
nRows=30
nColumns=33
inDegrees=no
endheader
time	1LAddLong	2LGlutMax	3LGlutMed	4LIliopsoas	5LSemiMemb	6LBicFemLong	7LRecFem	8LVastMed	9LVastLat	10LGasMed	11LTibAnt	12lTibPost	13LPeroneusLong	14LSol	15LExtDigLong	16LFlexDigLong	17RAddLong	18RGlutMax	19RGlutMed	20RIliopsoas	21RSemiMemb	22RBicFemLong	23RRecFem	24RVastMed	25RVastLat	26RGasMed	27RTibAnt	28RTibPost	29RPeroneusLong	30RSol	31RExtDigLong	32RFlexDigLong
46.198	-0.043335	-0.13382	0.072784	0.000305	0.019531	0.007172	-0.019379	0	-0.003815	0.005035	0.14481	0.011292	-0.071716	0.099487	0.24048	0.38376	0.017548	-0.083313	-0.42282	-0.019531	-0.029144	0.1326	0.002441	-0.1062	0.023804	-0.00061	-0.22293	-0.008087	0.009766	0.013275	0.011749	-0.010834
46.199	-0.03418	-0.14358	0.054932	-0.001678	0.009155	0.013733	-0.04303	0.009918	0.001373	0.064697	0.029449	0.009613	-0.067139	0.23239	0.21011	-0.052185	0.005951	-0.068359	-0.63263	0.055237	0.071106	0.103	-0.005188	-0.10513	0.033417	-0.003815	-0.11688	-0.006409	-0.005493	0.041809	0.003052	-0.009918
46.2	-0.033722	-0.15503	0.05127	-0.005188	0.018311	0.003662	0.001678	0.000458	-0.000153	0.11581	-0.18082	0.009766	-0.034637	0.27924	0.24628	0.18753	0.010986	-0.076141	-0.58731	0.063171	-0.038757	0.09491	0.000763	-0.070953	0.048218	0.000763	-0.1329	-0.008545	-0.011597	0.060425	0.001068	-0.011292
46.201	-0.021515	-0.15625	-0.010223	0.012207	0.011597	0.012512	0.009613	0.003357	0.001526	0.15259	-0.1474	0.005493	-0.0737	0.18585	0.049286	0.34271	0.007782	0.017242	-1.1098	0.075684	-0.045013	0.13168	-0.008392	0.009918	0.041504	0.000458	-0.09613	-0.010376	-0.016174	0.036163	0.000763	-0.008545
46.202	-0.00351	-0.15549	0.020752	0.03067	0.010376	-0.002594	0.020294	-0.005798	-0.005646	0.17075	-0.10544	0.012054	-0.12665	0.22705	-0.082703	-0.63812	0.021057	0.011597	-0.94696	0.049286	-0.27893	0.14832	0.019989	-0.080109	0.011292	-0.002136	-0.085602	-0.002594	0.004425	0.043488	0.004272	-0.006256
46.203	-0.000153	-0.12619	-0.006409	0.028381	0.017395	-0.001221	0.016632	0.010986	-0.018005	0.067749	-0.12436	0.011444	-0.007172	0.32944	-0.077209	-0.19043	0.031433	0.041351	0.26276	-0.009613	-0.45959	0.2005	0.027771	-0.11475	0.012817	0.00061	0.024719	-0.007477	-0.11093	0.045319	0.000763	-0.00946
46.204	0.001984	-0.12009	-0.02243	0.020752	0.017395	-0.006866	0.03067	0.009766	-0.048065	-0.17212	-0.2269	0.007477	0.039978	0.49103	-0.11444	-0.68909	-0.017395	-0.077972	0.99701	-0.048218	0.14862	0.24597	-0.037384	-0.034027	0.03891	-0.009003	0.21851	-0.003052	-0.22018	0.039215	0.005188	-0.00473
46.205	-0.005493	-0.12146	-0.018768	0.009003	0.019989	-0.012207	0.038147	0.007477	-0.049438	-0.16159	-0.089264	0.005493	0.007782	0.52887	-0.11551	-0.7811	-0.016785	-0.17105	0.91599	-0.020142	0.33783	0.19333	-0.059357	0.028687	0.054474	-0.005188	0.1619	-0.005493	-0.11566	0.027466	0.002136	-0.007629
46.206	-0.013275	-0.11658	-0.028687	0.004883	0.022736	-0.002594	0.07782	-0.002289	-0.056915	-0.10483	0.058594	0.013885	0.028992	0.2858	-0.017395	0.84167	0.002136	-0.19547	0.54398	0.005951	0.096436	0.24323	-0.002899	0.027924	0.046844	-0.001678	0.02182	0.000916	0.1651	0.00061	0.00061	-0.010376
46.207	-0.001221	-0.13275	-0.042572	0.008392	0.01709	0.010986	0.031738	0.011444	-0.07782	-0.081024	0.11932	-0.001068	0.024261	0.021515	-0.09613	1.2186	0.000763	-0.14374	0.36667	-0.037689	-0.055542	0.28717	-0.029449	-0.007629	0.027771	0.000763	0.021667	-0.004425	0.22492	-0.021362	0.000305	-0.010071
46.208	-0.000305	-0.11978	-0.068665	0.004883	0.019073	-0.011444	0.028076	0.019989	-0.11185	-0.012512	0.061035	-0.003967	0.008698	-0.2655	-0.063934	-0.26154	0.000763	-0.19257	0.14832	-0.082855	-0.085144	0.24811	-0.010834	-0.038757	0.02655	0.00351	-0.1741	-0.005646	0.21118	-0.059204	0.00061	-0.000763
46.209	-0.005798	-0.10773	-0.042572	0.010071	0.019073	0.004883	0.028839	0.001373	-0.040436	0.029449	-0.034637	0.015564	-0.038605	-0.39398	0.048218	0.62561	0.008545	-0.14542	0.050507	-0.092163	0.10101	0.14633	0.00412	-0.031433	0.031281	0.00061	-0.063019	-0.003815	-0.019379	-0.054321	0.000458	-0.002441
46.21	0.008698	-0.097351	-0.037689	0.009766	0.021057	-0.00412	0.006561	0.003052	0.04364	0.095673	-0.050201	0.011292	-0.063019	-0.39948	0.32471	0.12466	-0.009308	-0.085754	-0.000763	0.028992	0.14923	0.098572	0.033875	-0.041199	0.034485	-0.004883	-0.19058	-0.007629	-0.18845	0.029144	0.000153	-0.00412
46.211	0.008087	-0.10178	-0.076141	0.035248	0.023041	-0.014343	-0.069885	0.002747	0.009918	0.10864	-0.001221	0.007172	-0.050812	-0.31677	0.55237	-0.1741	0.001831	-0.099792	-0.20065	0.090332	0.10223	0.055695	-0.014801	-0.005341	0.032654	-0.009308	0.022736	-0.007629	-0.12695	0.042114	-0.000763	0.000458
46.212	0.002136	-0.08667	-0.10727	0.026245	0.019379	-0.003662	-0.1152	0.013885	0.010376	-0.059662	0.053711	0.01236	-0.001068	-0.37933	0.082855	-0.14862	-0.019379	-0.12161	-0.32837	0.13275	0.083008	0.082397	0.019073	-0.050201	0.045776	-0.010071	0.38696	-0.005188	0.060577	0.018616	-0.000458	0.009308
46.213	0.002594	-0.086975	-0.043945	0.014954	0.019836	-0.011292	-0.044708	-0.005798	0.084991	-0.16174	-0.071259	0.001373	0.082855	-0.28915	0.36011	-0.73395	-0.016785	-0.095367	-0.21927	0.15595	0.073547	0.040588	0.010223	-0.032196	0.049133	-0.008087	0.57327	-0.007935	0.5127	-0.018311	0.000305	0.005493
46.214	-0.001831	-0.13077	-0.027924	-0.001526	0.021515	-0.016174	0.021057	-0.01297	0.096893	-0.11505	0.16022	0.000916	0.083923	0.049896	0.19867	0.12482	0.00412	-0.13565	-0.083771	0.17456	0.076447	-0.009155	0.055237	-0.042572	0.03479	-0.003967	0.42709	-0.001373	0.18082	-0.03006	0	0.009918
46.215	-0.002747	-0.12222	-0.002441	-0.02121	0.018921	-0.009766	0.048218	-0.005493	0.063477	-0.086212	0.40665	0.010986	0.076599	0.13977	0.1471	0.17746	0.010223	-0.10391	0.096283	0.097198	0.069733	-0.002747	0.025177	-0.057983	0.033417	-0.007629	-0.16739	-0.010986	-0.06073	-0.063324	-0.002136	0.001984
46.216	-0.007935	-0.096741	0.017242	-0.007324	0.019073	0.007324	0.072327	-0.003357	-0.012512	-0.076141	0.26916	0.007629	0.02655	0.10696	-0.13977	-0.26428	0.009918	-0.09903	0.066986	0.061493	-0.004425	0.078735	0.000458	-0.068207	0.031281	-0.009308	-0.40695	-0.008698	-0.11887	-0.08667	-0.005188	0.011902
46.217	-0.003357	-0.10086	-0.059814	0.005798	0.009918	-0.003052	0.045166	0.000916	-0.004272	0.005493	0.12573	0.000763	-0.059204	0.001984	-0.73547	-0.034027	-0.007324	-0.075226	0.062256	0.024414	-0.082092	0.10437	0.028992	-0.075073	0.006866	-0.00061	-0.1683	-0.010529	0.050201	-0.034637	-0.00885	0.013428
46.218	-0.007782	-0.084839	-0.078888	0.001373	0.019989	0.001831	0.028229	0.000458	0.023193	0.097961	-0.19486	0.007172	-0.1088	-0.080566	-0.71091	0.017242	-0.009766	-0.022888	-0.002441	0.012665	-0.045319	0.10284	0.063171	-0.06897	0.005646	-0.014343	0.004425	-0.000458	0.11307	0.042419	-0.008087	0.012512
46.219	-0.006409	-0.095062	0.059662	-0.005341	0.025787	0.014191	0.026703	-0.001678	0.007172	0.11108	-0.049896	0.020752	-0.059967	-0.062866	-0.19089	-0.072632	0.016022	-0.036774	-0.010834	-0.069275	-0.046234	0.11337	0.015717	-0.056915	0.019836	-0.010681	-0.092621	-0.009003	0.068665	-0.002899	-0.002899	0.005035
46.22	-0.005341	-0.088196	-0.061493	0.003357	0.017853	0.003815	0.018921	0.006104	0.019836	0.10819	-0.12344	0.015259	-0.03952	-0.054779	0.17471	-1.6539	0.052643	-0.068665	0.054779	-0.03067	0.015717	0.14984	0.05661	-0.036163	0.013733	-0.016479	-0.086975	-0.010834	0.10346	-0.031738	0.004425	0.013123
46.221	-0.005035	-0.088959	-0.18524	0.031433	0.023956	0.003967	0.051575	-0.010376	0.001221	0.052032	-0.096283	0.009308	0.020905	-0.12924	-0.77423	0.35538	0.07843	-0.024414	-0.16403	0.020294	0.008087	0.066986	0.030975	-0.065765	0.009918	-0.015564	-0.01297	-0.006409	0.17425	-0.026245	-0.001068	0.014648
46.222	-0.007477	-0.11719	-0.18387	0.011902	0.019379	-0.001984	0.047455	-0.001678	-0.025787	-0.012665	-0.21088	0.005341	0.081482	-0.159	-0.17487	0.84824	0.11139	-0.062256	-0.22659	0.009003	-0.001526	-0.032349	-0.000153	-0.06546	0.004272	-0.013123	0.063934	-0.005951	0.19241	-0.021973	0.001068	0.009003
46.223	-0.010681	-0.10574	-0.014496	0.006104	0.02655	-0.009613	0.04776	-0.00473	-0.023499	-0.17364	0.021667	0.00885	0.013885	-0.007935	-0.40192	-0.25207	0.10574	-0.04425	-0.34607	-0.034027	-0.036621	-0.0383	-0.006866	-0.10513	0.021973	-0.007172	0.21347	-0.008545	0.089569	-0.070038	0.002136	0.019836
46.224	0.000305	-0.097809	0.13046	-0.003967	0.026855	0.01297	0.06424	0.001221	-0.039978	-0.18631	0.086212	0.008698	-0.046234	-0.013733	-0.19821	-0.20264	0.018158	-0.009918	-0.059814	-0.036316	-0.28397	0.14633	-0.028381	-0.091248	0.025024	-0.018005	0.40268	-0.002899	-0.03479	-0.005798	-0.000153	0.011292
46.225	-0.001678	-0.084991	0.12207	-0.006866	0.021515	0.002136	0.031738	-0.001373	-0.036926	-0.12009	0.072327	0.00473	0.025177	0.066071	-0.37247	0.57678	-0.022583	0.008698	0.085754	-0.068054	-0.29083	0.36545	-0.014954	-0.005646	0.016937	-0.021057	0.47684	-0.007019	-0.15747	0.035553	-0.003815	0.004425
46.226	-0.007172	-0.079498	0.072632	-0.001831	0.022583	0.006409	0.033722	0.004425	-0.021362	-0.042725	0.023193	0.001526	0.014038	0.20767	-0.31799	-0.080261	-0.012207	0.016785	-0.33035	0.010223	0.17548	0.48309	-0.026093	0.12146	0.036774	-0.018921	0.52811	-0.009613	-0.071259	0.004272	0.002441	0.017242
46.227	0.002289	-0.10834	0.087585	0.00351	0.016785	0.015564	0.007782	0.003204	0.011902	-0.066986	-0.097046	0.007172	-0.00824	0.11826	-0.12375	-0.22507	-0.036621	-0.041809	-0.34622	0.17883	0.20783	0.46356	0.006104	0.074768	0.014496	-0.016479	0.37643	-0.013123	0.11612	0.002899	-0.00061	0.016174
